PathFileType	4	(X/Y/Z)	Patient4_TMGait_0pt3_03_left_29.trc.trc
DataRate	CameraRate	NumFrames	NumMarkers	Units	OrigDataRate	OrigDataStartFrame	OrigNumFrames
54.054054054054	54.054054054054	5	33	mm	54.054054054054	106	       141
Frame#	Time	Sacral			L.Shoulder			Chest			R.Shoulder			Neck			R.ASIS			L.ASIS			R.Thigh.Superior			R.Thigh.Lateral			R.Thigh.Inferior			R.Patella			L.Thigh.Superior			L.Thigh.Lateral			L.Thigh.Inferior			L.Patella			L.Shank.Superior			L.Shank.Lateral			L.Shank.Inferior			R.Shank.Superior			R.Shank.Lateral			R.Shank.Inferior			R.Heel			R.Midfoot.Superior			R.Midfoot.Lateral			R.Toe			L.Heel			L.Midfoot.Lateral			L.Midfoot.Superior			L.Toe			L.Elbow			L.Wrist			R.Elbow			R.Wrist			
		X1	Y1	Z1	X2	Y2	Z2	X3	Y3	Z3	X4	Y4	Z4	X5	Y5	Z5	X6	Y6	Z6	X7	Y7	Z7	X8	Y8	Z8	X9	Y9	Z9	X10	Y10	Z10	X11	Y11	Z11	X12	Y12	Z12	X13	Y13	Z13	X14	Y14	Z14	X15	Y15	Z15	X16	Y16	Z16	X17	Y17	Z17	X18	Y18	Z18	X19	Y19	Z19	X20	Y20	Z20	X21	Y21	Z21	X22	Y22	Z22	X23	Y23	Z23	X24	Y24	Z24	X25	Y25	Z25	X26	Y26	Z26	X27	Y27	Z27	X28	Y28	Z28	X29	Y29	Z29	X30	Y30	Z30	X31	Y31	Z31	X32	Y32	Z32	X33	Y33	Z33	

106	53.262500000000	672.347926638228	993.234299295910	591.792001096941	859.688611593403	1414.883664384871	401.678030651626	959.580285973935	1346.157743930087	563.807799113060	880.034171961410	1421.270301767914	738.280800961400	840.685518830450	1480.155556375970	558.414306552451	906.310658146429	923.732763711920	702.012694318775	882.183292147198	946.903731357648	428.916880356334	951.602455226408	725.969380067837	657.417746823692	874.222281388146	610.104643741971	708.443023445288	951.475444618802	564.103962591756	623.650574705576	951.927785518378	466.062588561605	625.852414339003	957.621216490488	754.211535236534	459.853317825900	905.518840771773	629.903562953938	381.347609154277	1001.487614215193	560.293118628709	447.795004347562	1005.989873339631	469.868760366860	437.283292865360	933.990841296018	410.221152844498	423.096745152351	789.907833551501	380.805438992665	370.376668038052	768.398540196516	248.588527244910	415.462365936476	899.772397581238	383.120889071095	629.497435379072	807.120956977838	295.044846362601	687.391048621482	825.356323891004	196.604957445203	621.198032724131	659.962648380692	50.088124923834	585.328195103020	831.484479271473	97.211860330892	631.104839495213	738.923166748754	40.672414582430	664.338301174414	946.872952673019	38.831440316108	667.367750803964	572.869017998667	190.951559114551	448.251352063881	628.969249140464	149.766097665360	364.459546810523	735.257735645881	152.300539414924	386.751833922835	809.008584941682	39.833090003919	348.293585972143	824.847226104111	1057.434750008621	298.337149209414	884.395155028640	803.262234796414	297.409911188421	889.391191743998	1068.993119601540	859.517679303231	1019.490252060936	843.806197243352	877.596943016346	
107	53.281000000000	671.118934427870	992.330356767734	594.728950955270	856.384000761743	1413.419174946454	401.957520468196	958.531697208485	1345.078889719503	562.828513360192	881.527801159018	1420.649081710129	738.327517098454	839.941690297145	1479.141376227670	558.665082488182	905.945959900970	922.484474243913	702.384951198401	879.049391902476	946.290134785405	429.658619565185	950.907387133269	724.792293938824	657.264114421505	874.000210069025	608.799200882272	708.444161690289	950.721873733671	562.950133893398	623.017292144924	950.931294327629	464.616502304961	624.893436616213	957.579052872060	756.719589316914	460.890257122495	908.364117206571	631.796507339213	381.836558059797	1005.617323949322	564.028646939500	448.298088636476	1012.227602583586	473.711898950267	437.241130412572	941.587769818602	412.633459928426	422.585918108352	797.829102808680	380.021912507964	370.861945695845	780.376080444184	246.891939103224	414.749560533439	897.917910087434	381.893773618590	628.809475042591	804.730482935615	294.684502230912	687.283818223215	821.406759720634	196.126157343792	620.971794864269	654.469554168132	50.667654541645	585.545696365469	826.035590459082	97.126416240225	631.001658356810	733.466743590613	40.961092183017	664.540753953740	941.372692871468	38.681495433389	667.430631059881	587.042157925202	183.205299833000	448.867356799731	643.319100066950	145.208556739605	363.737376557096	749.571222410417	150.510649781055	385.144471749759	826.131132749457	40.877231138725	343.854894493102	810.352973501099	1056.732442953667	300.773108399815	856.328216373634	799.818124951282	302.689931164177	901.433258570662	1069.189471730673	860.555281020381	1045.964269943054	852.708322072935	875.340572593185	
108	53.299500000000	669.911825919596	991.983066538565	597.373992935606	853.161736387208	1412.472300719480	402.117439835115	957.594795436929	1344.412199833456	561.624133636315	883.234345136233	1420.434023717428	738.146374022743	839.326214289115	1478.542166579750	558.794610167805	905.533439206921	921.544762922711	702.403114347470	875.937098224076	946.148525817575	430.068793860342	949.695545644402	723.778932108465	656.821815977711	873.071752053062	607.850376070117	708.355832867986	949.108131999533	561.967900677219	622.280483184667	948.972864446639	463.499874049385	623.911566778668	956.974683750283	759.334146380238	461.346091236207	910.050629286525	633.943230034070	381.841170925309	1008.424658631219	567.788408879584	448.095228070010	1017.125949549477	477.918113332598	436.637019878728	948.448650923953	415.272390800030	421.601958535730	805.768801906035	377.997823144689	370.540008644072	793.621011751351	244.069183423479	413.471802536210	895.287143534201	380.972302394714	628.128680685328	801.759753567937	294.457185635387	687.187239933539	817.144067803950	195.799449818536	620.774892565457	648.953363811185	51.210298357782	585.801133747417	820.519601736479	96.985929309736	630.830048582994	727.993986016781	41.219989246531	664.758150577577	935.857323150522	38.544958484127	667.489344299963	603.394808266003	172.578724821369	448.517210117106	660.320890252482	138.160709638125	362.347321479216	766.233360643779	147.343815497589	383.124431873677	846.651249297211	41.634722727376	339.593705837790	795.830486348865	1057.025931678546	302.989039996976	829.345448112351	798.343451738961	308.034966092936	913.639282253855	1070.203922302391	861.229423945460	1072.616076880212	863.820809733184	872.042039691459	
109	53.318000000000	668.732720474195	992.246310210707	599.715952968915	850.059653946041	1412.113061830502	402.173438460380	956.791197934182	1344.188163085389	560.201004210671	885.179667758821	1420.638493264046	737.744330882393	838.863998987639	1478.398307447918	558.836465339758	905.078312795153	920.964824040672	702.052916856742	872.858874165362	946.512248344771	430.125826227460	947.915235292660	722.954153403130	656.089543758336	871.363017179835	607.299966593988	708.192319265000	946.537622674292	561.183124698569	621.456862731624	945.943379640955	462.747230513862	622.944684606754	955.824509752098	762.030386952358	461.263558365979	910.600363439356	636.284869134409	381.387319207956	1009.906873484041	571.486869041062	447.257083188774	1020.660381625779	482.421335746340	435.555996469572	954.544932492566	418.128245875280	420.229792850092	813.855467662892	374.855163794278	369.391552224065	808.121864626891	240.387542247686	411.679797669041	891.785982946076	380.392356190631	627.492540168087	798.119241279712	294.376663546315	687.113790847004	812.521222755630	195.638023750650	620.617755685079	643.411429897778	51.692835736255	586.089529135150	814.940037735261	96.802375875462	630.608172516603	722.498041163197	41.438098147527	664.983157634541	930.321545060903	38.426669438591	667.542648686558	622.003182703692	159.663768055360	447.140944575906	680.034416238825	129.083978677522	360.313729727913	785.215705524081	143.109002394466	380.787862150466	870.347193070623	42.251604598999	335.783823618543	781.497176168132	1058.372167361282	305.016349792870	803.669932144716	798.695004232632	313.370086943989	925.996836559533	1072.042305786895	861.524559786042	1099.155764927567	877.189732063882	867.731111592685	
110	53.336500000000	667.598016993620	993.132430269899	601.744245566686	847.118666238642	1412.368742794405	402.131154618304	956.139555688762	1344.407007328867	558.565334455551	887.375040940077	1421.251319909671	737.121562197033	838.574351362146	1478.719336254488	558.807178083312	904.585833717110	920.770122548587	701.329845993454	869.826324273373	947.377745581463	429.820471193842	945.556067653521	722.331831200054	655.081579996678	868.852041893429	607.166379153243	707.963626357240	942.980249951101	560.611704823404	620.566420497691	941.806808619477	462.373814100122	622.026209024903	954.142021132899	764.757880627557	460.696334761314	910.042193442728	638.748702554025	380.510448476911	1010.067319931173	575.029255187397	445.876249078700	1022.817198934196	487.140648836619	434.101128792713	959.838211127406	421.189102728850	418.570107678916	822.185705125656	370.779641012900	367.454364985511	823.798231483049	236.180015125490	409.470116491906	887.382582409247	380.172052703477	626.932445893588	793.767620753314	294.453636490617	687.071817383845	807.518452753291	195.650849239984	620.508537368542	637.844093728962	52.103666756905	586.401887434550	809.310636147001	96.596473169023	630.364483312541	716.975708699375	41.611971842154	665.207477743200	924.763379630693	38.328933723893	667.589159115867	642.857223857133	145.157758993297	444.777968901970	702.415509813958	118.563788290118	357.733452156640	806.390481112600	138.210629054109	378.270454962745	896.867134336161	42.976975889392	332.687909285654	767.560944165553	1060.763312960641	306.885232979535	779.482839333543	800.679832893937	318.611484502866	938.474916720928	1074.679649186622	861.413215227757	1125.274351205328	892.795515094406	862.454291145451	
